<?xml version="1.0" encoding="utf-8"?>
<!-- Generator: Adobe Illustrator 16.0.0, SVG Export Plug-In . SVG Version: 6.00 Build 0)  -->
<!DOCTYPE svg PUBLIC "-//W3C//DTD SVG 1.1//EN" "http://www.w3.org/Graphics/SVG/1.1/DTD/svg11.dtd">
<svg version="1.1" id="Layer_1" xmlns="http://www.w3.org/2000/svg" xmlns:xlink="http://www.w3.org/1999/xlink" x="0px" y="0px"
	 width="360px" height="360px" viewBox="25 0 360 360" enable-background="new 0 0 360 360" xml:space="preserve">
<g id="Layer_1_1_">
</g>
<g id="Layer_3">
</g>
<g id="Layer_2">
	<g>
		<path fill="#FFF6CA" d="M394.5,86.5c5.72,0.802,15.797,169.163-2,182c-5.846,4.171-23.879,31.691-50,39
			c-39.202,10.968-90,10-107.977,0.611c-0.2-3.182-39.605-18.797-47.023-48.934c-2.33-9.453-1.795-46.726-7.455-59.38
			c-8.036-17.96-35.562-27.394-38.545-28.806c15.254-7.621,30.282-9.706,40.452-20.938c12.075-12.837,11.106-64.721,22.548-77.959
			c17.16-20.058,51.118-33.214,74-33.616c7.018-0.211,38.067-4.769,65,8.02C367.794,58.035,388.17,87.07,394.5,86.5"/>
	</g>
</g>
<g id="Layer_4">
</g>
</svg>
