<?xml version="1.0" encoding="utf-8"?>
<!-- Generator: Adobe Illustrator 16.0.0, SVG Export Plug-In . SVG Version: 6.00 Build 0)  -->
<!DOCTYPE svg PUBLIC "-//W3C//DTD SVG 1.1//EN" "http://www.w3.org/Graphics/SVG/1.1/DTD/svg11.dtd">
<svg version="1.1" xmlns="http://www.w3.org/2000/svg" xmlns:xlink="http://www.w3.org/1999/xlink" x="0px" y="0px" width="576px"
	 height="360px" viewBox="0 0 576 360" enable-background="new 0 0 576 360" xml:space="preserve">
<g id="Layer_1">
	<rect fill="#F2C85F" width="576" height="360"/>
	<polygon opacity="0.6" fill="#916C1A" points="551,369.667 278.083,366.334 284,93 415,93 	"/>
	<g>
		<path fill="#FFFFFF" d="M186,449V97.667c0-9.9,8.595-17.667,18.495-17.667h191.848c9.9,0,17.657,7.767,17.657,17.667V449"/>
	</g>
	<polyline fill="#FFEAB2" points="200,417 200,105 402,105 402,417 	"/>
	<path fill="none" stroke="#9E9E9E" stroke-miterlimit="10" d="M311.5,432.5c0,3.313-2.687,6-6,6h-21c-3.313,0-6-2.687-6-6l0,0
		c0-3.313,2.687-6,6-6h21C308.813,426.5,311.5,429.187,311.5,432.5L311.5,432.5z"/>
	<ellipse fill="#606060" cx="278.083" cy="92.149" rx="3.591" ry="2.776"/>
	<path fill="#878787" d="M335.068,92c0,1.051-1.339,2-2.991,2h-38.889c-1.652,0-2.991-0.949-2.991-2l0,0c0-1.051,1.339-2,2.991-2
		h38.889C333.729,90,335.068,90.949,335.068,92L335.068,92z"/>
	<path fill="#FFFFFF" d="M188,165.956c0-1.231-0.69-2.229-2-2.229l0,0c-1.31,0-2,0.998-2,2.229v60.187c0,1.231,0.69,2.229,2,2.229
		l0,0c1.31,0,2-0.998,2-2.229V165.956z"/>
	<path fill="#FFFFFF" d="M417,164.869c0-0.63-0.689-1.143-2-1.143l0,0c-1.311,0-2,0.513-2,1.143v30.811c0,0.631,0.689,1.142,2,1.142
		l0,0c1.311,0,2-0.511,2-1.142V164.869z"/>
	<rect x="236.395" y="33" fill="none" width="136.869" height="46.667"/>
	<text transform="matrix(1 0 0 1 236.3945 63.1982)" fill="#916C1A" font-family="'Helvetica'" font-size="42">Roster</text>
</g>
<g id="Layer_2">
	<g id="Layer_3">
		<ellipse opacity="0.8" fill="#9E9A8A" enable-background="new    " cx="304.829" cy="250.875" rx="92.79" ry="86.596"/>
		<ellipse fill="#FFEAB2" cx="300.009" cy="247.734" rx="92.79" ry="86.596"/>
		<polygon fill="none" stroke="#FFFFFF" stroke-width="9" stroke-miterlimit="10" points="316.397,228.53 248.432,228.53 
			248.191,202.506 316.156,202.506 		"/>
		<polygon fill="none" stroke="#FFFFFF" stroke-width="9" stroke-miterlimit="10" points="328.448,265.442 226.741,265.442 
			225.055,239.419 326.762,239.419 		"/>
		
			<rect x="251.324" y="277.347" fill="none" stroke="#FFFFFF" stroke-width="9" stroke-miterlimit="10" width="80.016" height="21.985"/>
		<g>
			<path fill="#F2C85F" d="M373.596,227.169c-6.724-23.787-22.496-35.305-47.232-45.361l-1.076,0.052
				c-15.318,0.138-27.337,24.629-28.185,36.524c-0.984,13.309,8.47,25.985-1.41,36.637c-11.243,12.123,9.643,14.202,13.791,26.66
				c0.29,0.832,0.566,1.723,0.837,2.657c0.069-0.005,0.131-0.019,0.204-0.019c4.098-0.039,7.536-1.65,11.077-3.409
				c1.613-0.802,3.615,0.772,3.326,2.355c-0.893,4.912-4.376,8.651-8.209,11.918c-0.801,0.685-2.127,0.56-2.943-0.002
				c-0.22-0.15-0.433-0.309-0.646-0.471c2.552,8.557,6.471,16.861,16.01,17.57c14.104,1.328,36.439-31.038,43.279-40.009
				C383.088,258.496,379.293,244.174,373.596,227.169z"/>
		</g>
	</g>
</g>
<g id="Layer_3_1_">
	<polyline opacity="0.4" fill="#FFFAFA" points="200,417 200,105 402.377,105 200,417.115 	"/>
</g>
</svg>
